<svg xmlns="http://www.w3.org/2000/svg" width="188.066" height="45" viewBox="0 0 188.066 45"> <path d="M155.664,269.864h3.345v1.047c0,2.633,1.383,3.728,5.059,3.728h7.7c5.391,0,7.116-.21,7.116-3.389v-.166c0-2.05-.583-3.179-4.89-3.179h-11.1c-5.059,0-6.94-1.63-6.94-5.686v-1.254c0-3.47,1.962-5.395,10.827-5.395h5.534c8.113,0,9.241,2.342,9.241,5.354v1.128H178.2v-.21c0-3.26-2.176-3.345-6.1-3.345h-6.269c-5.144,0-6.273.5-6.273,2.928v.793c0,1.759.586,2.762,4.348,2.762H173.4c5.395,0,9.072.542,9.072,6.313v.081c0,5.981-5.517,6.188-9.909,6.188h-6.625c-5.31,0-10.285,0-10.285-6.395Z" transform="translate(-155.65 -232.563)" fill="#183553"></path> <path d="M250.33,264.208c0-7.025,4.975-8.658,11.79-8.658h5.144c6.815,0,11.793,1.633,11.793,8.658v4.68c0,7.025-4.978,8.655-11.793,8.655H262.12c-6.815,0-11.79-1.63-11.79-8.655Zm25.131.207c0-4.975-2.928-5.937-7.116-5.937h-7.31c-4.182,0-7.116.962-7.116,5.937v4.267c0,4.975,2.928,5.937,7.116,5.937h7.316c4.182,0,7.116-.962,7.116-5.937Z" transform="translate(-216.686 -232.55)" fill="#183553"></path> <path d="M354.47,196.2h3.6v44.661h-3.6Z" transform="translate(-284.285 -196.2)" fill="#183553"></path> <path d="M383.71,264.194c0-7.737,5.351-8.614,10.454-8.614h5.761c6.439,0,11.081,1.633,11.081,9.241v2.372H387.285v1.335c0,4.853,2.342,6.1,8.614,6.1h4.954c4.514,0,6.354-.586,6.564-3.846h3.6v.417c0,4.893-4.066,6.354-10.746,6.354h-6.523c-4.683,0-10.034-.874-10.034-8.736Zm23.721-1.355c0-2.172-1.63-4.348-7.486-4.348h-5.293c-5.69,0-7.025.922-7.36,5.761H407.4Z" transform="translate(-302.705 -232.57)" fill="#183553"></path> <path d="M505.363,240.838h-3.348v-3.621h-.081c-1.047,2.77-3.972,3.983-7.737,3.983h-5.015c-6.523,0-11.081-1.742-11.081-9.6v-4.03c0-7.282,2.633-9.875,11.288-9.875h5.48c4.1,0,6.063,1.028,6.815,3.4h.085V196.2h3.6Zm-23.667-9.3c0,4.425,1.294,6.518,7.15,6.518H494.7c5.351,0,7.069-2.412,7.069-6.569v-4.345c0-5.432-2.972-6.344-7.821-6.344H489.1c-4.934,0-7.4.985-7.4,6.257Z" transform="translate(-363.57 -196.2)" fill="#ffab23"></path> <path d="M580,196.2h3.6v4.2H580Zm0,21.861h3.6v22.8H580Z" transform="translate(-430.201 -196.2)" fill="#ffab23"></path> <path d="M609.75,269.864h3.345v1.047c0,2.633,1.379,3.728,5.059,3.728h7.693c5.395,0,7.116-.21,7.116-3.389v-.166c0-2.05-.586-3.179-4.893-3.179H616.988c-5.059,0-6.94-1.63-6.94-5.686v-1.254c0-3.47,1.965-5.395,10.844-5.395h5.52c8.109,0,9.238,2.342,9.238,5.354v1.128h-3.345v-.21c0-3.26-2.172-3.345-6.1-3.345h-6.3c-5.141,0-6.273.5-6.273,2.928v.793c0,1.759.587,2.762,4.348,2.762h9.489c5.4,0,9.075.542,9.075,6.313v.081c0,5.981-5.52,6.188-9.912,6.188h-6.6c-5.31,0-10.285,0-10.285-6.395Z" transform="translate(-448.482 -232.563)" fill="#ffab23"></path> </svg>