<svg width="396" height="534" viewBox="0 0 396 534" fill="none" xmlns="http://www.w3.org/2000/svg">
    <path
        d="M55 123.614C55 163.166 87.0626 195.229 126.614 195.229H198.229V52H126.614C87.0626 52 55 84.0636 55 123.614Z"
        fill="#F24E1E" />
    <path
        d="M198.229 52.001V195.229H269.843C309.395 195.229 341.458 163.166 341.458 123.614C341.458 84.0625 309.395 52.001 269.843 52.001H198.229Z"
        fill="#FF7262" />
    <path
        d="M55 266.843C55 306.395 87.0626 338.458 126.614 338.458H198.229V195.229H126.614C87.0626 195.229 55 227.293 55 266.843Z"
        fill="#A259FF" />
    <path
        d="M198.229 266.843C198.229 227.293 230.291 195.229 269.843 195.229C309.394 195.229 341.458 227.293 341.458 266.843C341.458 306.395 309.394 338.458 269.843 338.458C230.291 338.458 198.229 306.395 198.229 266.843Z"
        fill="#1ABCFE" />
    <path
        d="M55 410.072C55 370.521 87.0626 338.458 126.614 338.458H198.229V410.072C198.229 449.624 166.166 481.687 126.614 481.687C87.0626 481.687 55 449.624 55 410.072Z"
        fill="#0ACF83" />
</svg>