<svg xmlns="http://www.w3.org/2000/svg" version="1.1" xmlns:xlink="http://www.w3.org/1999/xlink" xmlns:svgjs="http://svgjs.dev/svgjs" width="1000" height="1125" viewBox="0 0 1000 1125"><g transform="matrix(1,0,0,1,0,0)"><svg viewBox="0 0 320 360" data-background-color="#ffffff" preserveAspectRatio="xMidYMid meet" height="1125" width="1000" xmlns="http://www.w3.org/2000/svg" xmlns:xlink="http://www.w3.org/1999/xlink"><g id="tight-bounds" transform="matrix(1,0,0,1,0,0)"><svg viewBox="0 0 320 360" height="360" width="320"><rect width="320" height="360" fill="url(#dcf330d1-1c2d-4a17-b124-a3d8150a66e8)" mask="url(#be6cb3ca-f251-4eec-98eb-ae02d4614509)" data-fill-palette-color="tertiary"></rect><g><svg></svg></g><g><svg viewBox="0 0 320 360" height="360" width="320"><g><path xmlns="http://www.w3.org/2000/svg" d="M297.491 100.645c-12.426-21.51-112.674-79.355-137.491-79.355-24.817 0-125.028 57.845-137.491 79.355-11.591 20.02-11.591 138.726 0 158.746 12.463 21.474 112.674 79.319 137.491 79.319 24.817 0 125.064-57.845 137.491-79.355 11.591-20.02 11.591-138.69 0-158.71zM309.481 93.705c-14.461-24.998-119.469-86.295-149.481-86.295-30.012 0-135.02 61.297-149.481 86.295-14.025 24.199-14.025 148.391 0 172.59 14.461 24.998 119.469 86.295 149.481 86.295 30.012 0 135.02-61.297 149.481-86.259 14.025-24.235 14.025-148.427 0-172.626zM300.906 261.353c-12.753 22.055-115.472 81.317-140.906 81.318-25.434 0-128.153-59.298-140.906-81.354-11.881-20.529-11.881-142.178 0-162.707 12.753-22.019 115.472-81.281 140.906-81.281 25.434 0 128.153 59.298 140.906 81.318 11.881 20.529 11.881 142.178 0 162.706z" fill="url(#dcf330d1-1c2d-4a17-b124-a3d8150a66e8)" fill-rule="nonzero" stroke="none" stroke-width="1" stroke-linecap="butt" stroke-linejoin="miter" stroke-miterlimit="10" stroke-dasharray="" stroke-dashoffset="0" font-family="none" font-weight="none" font-size="none" text-anchor="none" style="mix-blend-mode: normal" data-fill-palette-color="tertiary"></path></g><g transform="matrix(1,0,0,1,73.74280230326296,90)"><svg viewBox="0 0 172.51439539347408 180" height="180" width="172.51439539347408"><g><svg viewBox="0 0 172.51439539347408 180" height="180" width="172.51439539347408"><g><svg viewBox="0 0 172.51439539347408 180" height="180" width="172.51439539347408"><g><svg viewBox="0 0 172.51439539347408 180" height="180" width="172.51439539347408"><g id="textblocktransform"><svg viewBox="0 0 172.51439539347408 180" height="180" width="172.51439539347408" id="textblock"><g><svg viewBox="0 0 172.51439539347408 180" height="180" width="172.51439539347408"><g transform="matrix(1,0,0,1,0,0)"><svg width="172.51439539347408" viewBox="5.420000076293945 -38.15999984741211 36.56999969482422 38.15999984741211" height="180" data-palette-color="#ffffff"><path d="M5.42 0L5.42-38.16 24.83-38.16Q29.22-38.16 32.45-37.24 35.67-36.33 37.79-34.59 39.92-32.86 40.95-30.37 41.99-27.88 41.99-24.73L41.99-24.73Q41.99-22.61 41.48-20.69 40.97-18.77 39.9-17.16 38.84-15.55 37.23-14.29 35.62-13.04 33.45-12.21L33.45-12.21 41.75 0 32.28 0 25.1-10.84 24.88-10.84 13.16-10.86 13.16 0 5.42 0ZM13.16-17.55L25.02-17.55Q27.22-17.55 28.87-18.07 30.52-18.58 31.63-19.51 32.74-20.43 33.29-21.77 33.84-23.1 33.84-24.73L33.84-24.73Q33.84-27.93 31.64-29.68 29.44-31.42 25.02-31.42L25.02-31.42 13.16-31.42 13.16-17.55Z" opacity="1" transform="matrix(1,0,0,1,0,0)" fill="#ffffff" class="wordmark-text-0" data-fill-palette-color="quaternary" id="text-0"></path></svg></g></svg></g></svg></g></svg></g><g></g></svg></g></svg></g></svg></g></svg></g><defs></defs><mask id="be6cb3ca-f251-4eec-98eb-ae02d4614509"><g id="SvgjsG1596"><svg viewBox="0 0 320 360" height="360" width="320"><g><svg></svg></g><g><svg viewBox="0 0 320 360" height="360" width="320"><g><path xmlns="http://www.w3.org/2000/svg" d="M297.491 100.645c-12.426-21.51-112.674-79.355-137.491-79.355-24.817 0-125.028 57.845-137.491 79.355-11.591 20.02-11.591 138.726 0 158.746 12.463 21.474 112.674 79.319 137.491 79.319 24.817 0 125.064-57.845 137.491-79.355 11.591-20.02 11.591-138.69 0-158.71zM309.481 93.705c-14.461-24.998-119.469-86.295-149.481-86.295-30.012 0-135.02 61.297-149.481 86.295-14.025 24.199-14.025 148.391 0 172.59 14.461 24.998 119.469 86.295 149.481 86.295 30.012 0 135.02-61.297 149.481-86.259 14.025-24.235 14.025-148.427 0-172.626zM300.906 261.353c-12.753 22.055-115.472 81.317-140.906 81.318-25.434 0-128.153-59.298-140.906-81.354-11.881-20.529-11.881-142.178 0-162.707 12.753-22.019 115.472-81.281 140.906-81.281 25.434 0 128.153 59.298 140.906 81.318 11.881 20.529 11.881 142.178 0 162.706z" fill="white" fill-rule="nonzero" stroke="none" stroke-width="1" stroke-linecap="butt" stroke-linejoin="miter" stroke-miterlimit="10" stroke-dasharray="" stroke-dashoffset="0" font-family="none" font-weight="none" font-size="none" text-anchor="none" style="mix-blend-mode: normal"></path></g><g transform="matrix(1,0,0,1,73.74280230326296,90)"><svg viewBox="0 0 172.51439539347408 180" height="180" width="172.51439539347408"><g><svg viewBox="0 0 172.51439539347408 180" height="180" width="172.51439539347408"><g><svg viewBox="0 0 172.51439539347408 180" height="180" width="172.51439539347408"><g><svg viewBox="0 0 172.51439539347408 180" height="180" width="172.51439539347408"><g id="SvgjsG1595"><svg viewBox="0 0 172.51439539347408 180" height="180" width="172.51439539347408" id="SvgjsSvg1594"><g><svg viewBox="0 0 172.51439539347408 180" height="180" width="172.51439539347408"><g transform="matrix(1,0,0,1,0,0)"><svg width="172.51439539347408" viewBox="5.420000076293945 -38.15999984741211 36.56999969482422 38.15999984741211" height="180" data-palette-color="#ffffff"></svg></g></svg></g></svg></g></svg></g><g></g></svg></g></svg></g></svg></g></svg></g><defs><mask></mask></defs></svg></g></mask><linearGradient x1="0" x2="1" y1="0.548" y2="0.55" id="dcf330d1-1c2d-4a17-b124-a3d8150a66e8"><stop stop-color="#ff6cab" offset="0"></stop><stop stop-color="#7366ff" offset="1"></stop></linearGradient></svg><rect width="320" height="360" fill="none" stroke="none" visibility="hidden"></rect></g></svg></g></svg>