<svg xmlns="http://www.w3.org/2000/svg" version="1.1" xmlns:xlink="http://www.w3.org/1999/xlink" xmlns:svgjs="http://svgjs.dev/svgjs" width="1000" height="623" viewBox="0 0 1000 623"><g transform="matrix(1,0,0,1,-0.6060606060606233,0.2522421153449841)"><svg viewBox="0 0 396 247" data-background-color="#ffffff" preserveAspectRatio="xMidYMid meet" height="623" width="1000" xmlns="http://www.w3.org/2000/svg" xmlns:xlink="http://www.w3.org/1999/xlink"><g id="tight-bounds" transform="matrix(1,0,0,1,0.2400000000000091,-0.10000610351559658)"><svg viewBox="0 0 395.52 247.2" height="247.2" width="395.52"><rect width="395.5199890136719" height="247.20001220703125" fill="url(#679c8721-33b0-480f-a6f2-a2fca1e62f56)" mask="url(#053efc54-c315-4990-9cff-5575a1523b92)" data-fill-palette-color="tertiary"></rect><g><svg></svg></g><g><svg viewBox="0 0 395.52 247.2" height="247.2" width="395.52"><g transform="matrix(1,0,0,1,75.54432,87.91896054669704)"><svg viewBox="0 0 244.43135999999998 71.36207890660592" height="71.36207890660592" width="244.43135999999998"><g><svg viewBox="0 0 244.43135999999998 71.36207890660592" height="71.36207890660592" width="244.43135999999998"><g><svg viewBox="0 0 244.43135999999998 71.36207890660592" height="71.36207890660592" width="244.43135999999998"><g><svg viewBox="0 0 244.43135999999998 71.36207890660592" height="71.36207890660592" width="244.43135999999998"><g id="textblocktransform"><svg viewBox="0 0 244.43135999999998 71.36207890660592" height="71.36207890660592" width="244.43135999999998" id="textblock"><g><svg viewBox="0 0 244.43135999999998 71.36207890660592" height="71.36207890660592" width="244.43135999999998"><g transform="matrix(1,0,0,1,0,0)"><svg width="244.43135999999998" viewBox="3.6500000953674316 -38.150001525878906 131.69000244140625 38.45000076293945" height="71.36207890660592" data-palette-color="url(#d8248604-af20-4c2b-b18b-45b0992b2d4a)"></svg></g></svg></g></svg></g></svg></g></svg></g></svg></g></svg></g><g><path d="M0 123.6c0-68.262 55.338-123.6 123.6-123.6 52.725 0 97.739 33.013 115.499 79.496l-3.452 0c-17.596-44.667-61.13-76.278-112.047-76.278-66.485 0-120.382 53.897-120.382 120.382 0 66.485 53.897 120.382 120.382 120.382 50.917 0 94.45-31.611 112.047-76.278h3.452c-17.76 46.483-62.774 79.496-115.499 79.496-68.262 0-123.6-55.338-123.6-123.6z" fill="url(#679c8721-33b0-480f-a6f2-a2fca1e62f56)" stroke="transparent" data-fill-palette-color="tertiary"></path></g></svg></g><defs></defs><mask id="0f08c723-7e27-4360-b987-74adcf49afdf"><g id="SvgjsG1023"><svg viewBox="0 0 395.52 247.2" height="247.2" width="395.52"><g><svg></svg></g><g><svg viewBox="0 0 395.52 247.2" height="247.2" width="395.52"><g transform="matrix(1,0,0,1,75.54432,87.91896054669704)"><svg viewBox="0 0 244.43135999999998 71.36207890660592" height="71.36207890660592" width="244.43135999999998"><g><svg viewBox="0 0 244.43135999999998 71.36207890660592" height="71.36207890660592" width="244.43135999999998"><g><svg viewBox="0 0 244.43135999999998 71.36207890660592" height="71.36207890660592" width="244.43135999999998"><g><svg viewBox="0 0 244.43135999999998 71.36207890660592" height="71.36207890660592" width="244.43135999999998"><g id="SvgjsG1022"><svg viewBox="0 0 244.43135999999998 71.36207890660592" height="71.36207890660592" width="244.43135999999998" id="SvgjsSvg1021"><g><svg viewBox="0 0 244.43135999999998 71.36207890660592" height="71.36207890660592" width="244.43135999999998"><g transform="matrix(1,0,0,1,0,0)"><svg width="244.43135999999998" viewBox="3.6500000953674316 -38.150001525878906 131.69000244140625 38.45000076293945" height="71.36207890660592" data-palette-color="url(#d8248604-af20-4c2b-b18b-45b0992b2d4a)"><path d="M8.7 0L3.65 0 3.65-36.85 18.4-36.85Q20.3-36.85 22.08-36.4 23.85-35.95 25.25-34.75 26.65-33.55 27.45-31.38 28.25-29.2 28.25-25.7L28.25-25.7Q28.25-22.85 27.65-20.95 27.05-19.05 26.08-17.93 25.1-16.8 23.93-16.23 22.75-15.65 21.6-15.35L21.6-15.35 28.95 0 23.85 0 17.05-14.65Q16.3-14.65 15.23-14.68 14.15-14.7 12.98-14.7 11.8-14.7 10.68-14.75 9.55-14.8 8.7-14.8L8.7-14.8 8.7 0ZM8.7-32.35L8.7-18.7 17.6-18.7Q18.8-18.7 19.8-18.98 20.8-19.25 21.58-20.03 22.35-20.8 22.8-22.18 23.25-23.55 23.25-25.7L23.25-25.7Q23.25-27.8 22.8-29.1 22.35-30.4 21.55-31.1 20.75-31.8 19.75-32.08 18.75-32.35 17.6-32.35L17.6-32.35 8.7-32.35ZM47.55 0L42.5 0 42.5-32.35 31.5-32.35 31.5-36.85 58.55-36.85 58.55-32.35 47.55-32.35 47.55 0ZM70.9 0.3L70.9 0.3Q66.65 0.3 64.12-0.95 61.6-2.2 60.52-5.18 59.45-8.15 59.45-13.4L59.45-13.4Q59.45-18.75 60.52-21.73 61.6-24.7 64.09-25.9 66.59-27.1 70.84-27.1L70.84-27.1Q74.55-27.1 76.82-26.33 79.09-25.55 80.17-23.58 81.25-21.6 81.25-18.1L81.25-18.1Q81.25-15.65 80.27-14.2 79.3-12.75 77.52-12.1 75.75-11.45 73.3-11.45L73.3-11.45 64.45-11.45Q64.5-8.55 65.12-6.83 65.75-5.1 67.37-4.33 69-3.55 72.15-3.55L72.15-3.55 80.5-3.55 80.5-0.55Q78.34-0.25 76.09 0.03 73.84 0.3 70.9 0.3ZM64.4-14.6L64.4-14.6 72.84-14.6Q74.84-14.6 75.8-15.35 76.75-16.1 76.75-18.1L76.75-18.1Q76.75-20.1 76.17-21.25 75.59-22.4 74.3-22.9 73-23.4 70.84-23.4L70.84-23.4Q68.4-23.4 66.97-22.65 65.55-21.9 64.97-20 64.4-18.1 64.4-14.6ZM92.34 0L87.34 0 87.34-38.15 92.34-38.15 92.34-16.5 95.99-16.5 103.44-26.75 108.64-26.75 99.69-14.25 109.29 0 104.04 0 95.84-12 92.34-12 92.34 0ZM118.39 0L113.39 0 113.39-38.15 118.39-38.15 118.39-16.5 122.04-16.5 129.49-26.75 134.69-26.75 125.74-14.25 135.34 0 130.09 0 121.89-12 118.39-12 118.39 0Z" opacity="1" transform="matrix(1,0,0,1,0,0)" fill="white" class="wordmark-text-0" id="SvgjsPath1020"></path></svg></g></svg></g></svg></g></svg></g></svg></g></svg></g></svg></g><g></g></svg></g><defs></defs></svg></g></mask><linearGradient x1="0" x2="1" y1="0.548" y2="0.55" id="d8248604-af20-4c2b-b18b-45b0992b2d4a"><stop stop-color="#ff6cab" offset="0"></stop><stop stop-color="#7366ff" offset="1"></stop></linearGradient><rect width="395.5199890136719" height="247.20001220703125" fill="url(#d8248604-af20-4c2b-b18b-45b0992b2d4a)" mask="url(#0f08c723-7e27-4360-b987-74adcf49afdf)" data-fill-palette-color="primary"></rect><mask id="053efc54-c315-4990-9cff-5575a1523b92"><g id="SvgjsG1030"><svg viewBox="0 0 395.52 247.2" height="247.2" width="395.52"><g><svg></svg></g><g><svg viewBox="0 0 395.52 247.2" height="247.2" width="395.52"><g transform="matrix(1,0,0,1,75.54432,87.91896054669704)"><svg viewBox="0 0 244.43135999999998 71.36207890660592" height="71.36207890660592" width="244.43135999999998"><g><svg viewBox="0 0 244.43135999999998 71.36207890660592" height="71.36207890660592" width="244.43135999999998"><g><svg viewBox="0 0 244.43135999999998 71.36207890660592" height="71.36207890660592" width="244.43135999999998"><g><svg viewBox="0 0 244.43135999999998 71.36207890660592" height="71.36207890660592" width="244.43135999999998"><g id="SvgjsG1029"><svg viewBox="0 0 244.43135999999998 71.36207890660592" height="71.36207890660592" width="244.43135999999998" id="SvgjsSvg1028"><g><svg viewBox="0 0 244.43135999999998 71.36207890660592" height="71.36207890660592" width="244.43135999999998"><g transform="matrix(1,0,0,1,0,0)"><svg width="244.43135999999998" viewBox="3.6500000953674316 -38.150001525878906 131.69000244140625 38.45000076293945" height="71.36207890660592" data-palette-color="url(#d8248604-af20-4c2b-b18b-45b0992b2d4a)"></svg></g></svg></g></svg></g></svg></g></svg></g></svg></g></svg></g><g><path d="M0 123.6c0-68.262 55.338-123.6 123.6-123.6 52.725 0 97.739 33.013 115.499 79.496l-3.452 0c-17.596-44.667-61.13-76.278-112.047-76.278-66.485 0-120.382 53.897-120.382 120.382 0 66.485 53.897 120.382 120.382 120.382 50.917 0 94.45-31.611 112.047-76.278h3.452c-17.76 46.483-62.774 79.496-115.499 79.496-68.262 0-123.6-55.338-123.6-123.6z" fill="white" stroke="transparent"></path></g></svg></g><defs></defs><mask><g id="SvgjsG1027"><svg viewBox="0 0 395.52 247.2" height="247.2" width="395.52"><g><svg></svg></g><g><svg viewBox="0 0 395.52 247.2" height="247.2" width="395.52"><g transform="matrix(1,0,0,1,75.54432,87.91896054669704)"><svg viewBox="0 0 244.43135999999998 71.36207890660592" height="71.36207890660592" width="244.43135999999998"><g><svg viewBox="0 0 244.43135999999998 71.36207890660592" height="71.36207890660592" width="244.43135999999998"><g><svg viewBox="0 0 244.43135999999998 71.36207890660592" height="71.36207890660592" width="244.43135999999998"><g><svg viewBox="0 0 244.43135999999998 71.36207890660592" height="71.36207890660592" width="244.43135999999998"><g id="SvgjsG1026"><svg viewBox="0 0 244.43135999999998 71.36207890660592" height="71.36207890660592" width="244.43135999999998" id="SvgjsSvg1025"><g><svg viewBox="0 0 244.43135999999998 71.36207890660592" height="71.36207890660592" width="244.43135999999998"><g transform="matrix(1,0,0,1,0,0)"><svg width="244.43135999999998" viewBox="3.6500000953674316 -38.150001525878906 131.69000244140625 38.45000076293945" height="71.36207890660592" data-palette-color="url(#d8248604-af20-4c2b-b18b-45b0992b2d4a)"></svg></g></svg></g></svg></g></svg></g></svg></g></svg></g></svg></g><g></g></svg></g><defs></defs></svg></g></mask></svg></g></mask><linearGradient x1="0" x2="1" y1="0.548" y2="0.55" id="679c8721-33b0-480f-a6f2-a2fca1e62f56"><stop stop-color="#ff6cab" offset="0"></stop><stop stop-color="#7366ff" offset="1"></stop></linearGradient></svg><rect width="395.52" height="247.2" fill="none" stroke="none" visibility="hidden"></rect></g></svg></g></svg>