{
  "accessors": [
    {
      "bufferView": 2,
      "componentType": 5126,
      "count": 536,
      "max": [
        0.642857015132904,
        1.0,
        2.883739966819121e-07
      ],
      "min": [
        -0.642857015132904,
        -1.0,
        -2.883739966819121e-07
      ],
      "type": "VEC3"
    },
    {
      "bufferView": 2,
      "byteOffset": 6432,
      "componentType": 5126,
      "count": 536,
      "max": [
        3.783329930229229e-06,
        4.081010047229938e-06,
        1.0
      ],
      "min": [
        -3.1971001135389088e-06,
        -4.471120064408751e-06,
        1.0
      ],
      "type": "VEC3"
    },
    {
      "bufferView": 3,
      "componentType": 5126,
      "count": 536,
      "max": [
        1.0,
        0.0001336824643658474,
        3.1971014777809614e-06,
        1.0
      ],
      "min": [
        1.0,
        -0.00011246927897445858,
        -3.7833362966921413e-06,
        1.0
      ],
      "type": "VEC4"
    },
    {
      "bufferView": 1,
      "componentType": 5126,
      "count": 536,
      "max": [
        1.0,
        1.0
      ],
      "min": [
        5.96045985901128e-08,
        0.0
      ],
      "type": "VEC2"
    },
    {
      "bufferView": 0,
      "componentType": 5125,
      "count": 2868,
      "type": "SCALAR"
    }
  ],
  "asset": {
    "extras": {
      "author": "drazini (https://sketchfab.com/drazini)",
      "license": "CC-BY-4.0 (http://creativecommons.org/licenses/by/4.0/)",
      "source": "https://sketchfab.com/3d-models/hollow-knight-card-cdc3237231ca451c9a680a6f1d67b540",
      "title": "Hollow Knight Card"
    },
    "generator": "Sketchfab-12.66.0",
    "version": "2.0"
  },
  "bufferViews": [
    {
      "buffer": 0,
      "byteLength": 11472,
      "name": "floatBufferViews",
      "target": 34963
    },
    {
      "buffer": 0,
      "byteLength": 4288,
      "byteOffset": 11472,
      "byteStride": 8,
      "name": "floatBufferViews",
      "target": 34962
    },
    {
      "buffer": 0,
      "byteLength": 12864,
      "byteOffset": 15760,
      "byteStride": 12,
      "name": "floatBufferViews",
      "target": 34962
    },
    {
      "buffer": 0,
      "byteLength": 8576,
      "byteOffset": 28624,
      "byteStride": 16,
      "name": "floatBufferViews",
      "target": 34962
    }
  ],
  "buffers": [
    {
      "byteLength": 37200,
      "uri": "scene.bin"
    }
  ],
  "extensionsUsed": [
    "KHR_materials_clearcoat"
  ],
  "images": [
    {
      "uri": "textures/Material__46_baseColor.jpeg"
    },
    {
      "uri": "textures/Material__46_metallicRoughness.png"
    },
    {
      "uri": "textures/Material__46_emissive.jpeg"
    },
    {
      "uri": "textures/Material__46_normal.png"
    },
    {
      "uri": "textures/Material__46_clearcoat.png"
    },
    {
      "uri": "textures/Material__46_clearcoat_normal.png"
    }
  ],
  "materials": [
    {
      "doubleSided": true,
      "emissiveFactor": [
        1.0,
        1.0,
        1.0
      ],
      "emissiveTexture": {
        "index": 2
      },
      "extensions": {
        "KHR_materials_clearcoat": {
          "clearcoatFactor": 0.3057187068687716,
          "clearcoatNormalTexture": {
            "index": 5
          },
          "clearcoatRoughnessFactor": 1.0,
          "clearcoatRoughnessTexture": {
            "index": 1
          },
          "clearcoatTexture": {
            "index": 4
          }
        }
      },
      "name": "Material__46",
      "normalTexture": {
        "index": 3
      },
      "pbrMetallicRoughness": {
        "baseColorTexture": {
          "index": 0
        },
        "metallicRoughnessTexture": {
          "index": 1
        }
      }
    }
  ],
  "meshes": [
    {
      "name": "defaultMaterial",
      "primitives": [
        {
          "attributes": {
            "NORMAL": 1,
            "POSITION": 0,
            "TANGENT": 2,
            "TEXCOORD_0": 3
          },
          "indices": 4,
          "material": 0,
          "mode": 4
        }
      ]
    }
  ],
  "nodes": [
    {
      "children": [
        1
      ],
      "matrix": [
        0.5505256056785583,
        0.0,
        0.0,
        0.0,
        0.0,
        -0.009764997354994132,
        -0.5504390098408827,
        0.0,
        0.0,
        0.5504390098408827,
        -0.009764997354994132,
        0.0,
        0.0,
        3.680324101029419e-11,
        1.2525889658832057e-08,
        1.0
      ],
      "name": "Sketchfab_model"
    },
    {
      "children": [
        2
      ],
      "matrix": [
        1.0,
        0.0,
        0.0,
        0.0,
        0.0,
        -4.371139006309477e-08,
        0.999999999999999,
        0.0,
        0.0,
        -0.999999999999999,
        -4.371139006309477e-08,
        0.0,
        0.0,
        0.0,
        0.0,
        1.0
      ],
      "name": "Collada visual scene group"
    },
    {
      "children": [
        3
      ],
      "name": "Loft001"
    },
    {
      "mesh": 0,
      "name": "defaultMaterial"
    }
  ],
  "samplers": [
    {
      "magFilter": 9729,
      "minFilter": 9987,
      "wrapS": 10497,
      "wrapT": 10497
    }
  ],
  "scene": 0,
  "scenes": [
    {
      "name": "Sketchfab_Scene",
      "nodes": [
        0
      ]
    }
  ],
  "textures": [
    {
      "sampler": 0,
      "source": 0
    },
    {
      "sampler": 0,
      "source": 1
    },
    {
      "sampler": 0,
      "source": 2
    },
    {
      "sampler": 0,
      "source": 3
    },
    {
      "sampler": 0,
      "source": 4
    },
    {
      "sampler": 0,
      "source": 5
    }
  ]
}
