<svg width="771" height="847" fill="none" xmlns="http://www.w3.org/2000/svg"><path d="m749.417 245.5-7.917-10-344-234-321 188L1 553.5l227.5 292L656 734.754M749.417 245.5 656 734.754M749.417 245.5l7.083 8.947M656 734.754l10-2.591m0 0 90.5-477.716M666 732.163l9-2.332m81.5-475.384 6.75 8.527m0 0L770 271.5l-10.561 56m3.811-64.526L675 729.831m0 0 9-2.331L705.783 612m0 0L670 611.5m35.783.5 10.717-56.826m0 0L682 548m34.5 7.174L727.283 498m0 0L694 485.5m33.283 12.5 10.75-57m0 0L706 422.5m32.033 18.5 10.656-56.5m0 0L718 360m30.689 24.5 10.75-57m0 0-29.939-30" stroke="#4771D1"/><path d="m363.5 172.5 34-171m-34 171-26 13.625m26-13.625 21.25 16.861M547.5 318.5l-6.651 34m6.651-34 193.5-83-11.78 62.25M547.5 318.5l-25-19.837M494 592l-30.817 10.25M494 592l150.5 145.5M494 592l6.749-34.5M264 668.5l-19.25-22.191M264 668.5 228.5 845M264 668.5l26.5-9M120 502.5l5.788-28.5M120 502.5l-119 51m119-51 16.254 18.737M120 502.5l68.5 8.5M166 276l23.25-12.184M166 276l-89.5-86.5M166 276l-5.687 28M166 276l65 25.5m181.5-90.12L428.432 224M412.5 211.38l-6.5-5.157m6.5 5.157-19.5 9.683M231 301.5l22.25-11.048M231 301.5l-5.173 25.5M188.5 511l5.325-26.25M188.5 511l16 17.685m111 122.686-25 8.129m25-8.129 2.618-.871m-2.618.871-7.121-7.871M337.5 186.125 352.5 28m-15 158.125L311 200.013m26.5-13.888 55.5 34.938m-82-21.05L308.5 53.5m2.5 146.513-25.5 13.363m25.5-13.363 57.5 33.215m-83-19.852L266.5 78.5m19 134.876L260.457 226.5m25.043-13.124 59 31.768M260.457 226.5 226 102m34.457 124.5L236.5 239.054m23.957-12.554L321 256.813m-84.5-17.759L186.5 125m50 114.054-24 12.578m24-12.578 61.5 29.179m-85.5-16.601-64-104.132m64 104.132-23.25 12.184m23.25-12.184 63 27.773m-86.25-15.589L112 169m77.25 94.816 64 26.636M160.313 304 67 234.5m93.313 69.5-5.788 28.5m5.788-28.5 65.514 23m-71.302 5.5L57.5 280m97.025 52.5-5.686 28m5.686-28L220.35 354m-71.511 6.5L48.5 325m100.339 35.5-5.687 28m5.687-28 66.236 19.5m-71.923 8.5L39 370.5m104.152 18-5.788 28.5m5.788-28.5 66.75 17M137.364 417 29.5 416m107.864 1-5.788 28.5m5.788-28.5 67.162 15m-72.95 13.5L20 461.5m111.576-16-5.788 28.5m5.788-28.5 67.574 13M125.788 474 10.5 507.5M125.788 474l68.037 10.75m-57.571 36.487L26 585.5m110.254-64.263 17.246 19.881m-17.246-19.881 68.246 7.448m-51 12.433L52 618.5m101.5-77.382 17.681 20.382M153.5 541.118l67.119 5.382m-49.438 15-92.681 91m92.681-91 17.319 19.965M171.181 561.5l66.319 3.659m-49 16.306L106 688.5m82.5-107.035L207.181 603M188.5 581.465l66 2.484M207.181 603 135 725.5M207.181 603l18.319 21.118M207.181 603l64.819.291m-46.5 20.827L165 763m60.5-138.882 19.25 22.191m-19.25-22.191 65-.379m-45.75 22.57L196.5 804m48.25-157.691 63.629-2.809m-17.879 16-17 174.5m17-174.5 27.618-9m0 0 1.882 171m-1.882-171 27.058-9m0 0L369 809m-23.824-167.5 28.563-9.5m0 0L419.5 796m-45.761-164 28.761-9.566m0 0L472.5 782m-70-159.566 29.866-9.934m0 0L527.5 768m-95.134-155.5 30.817-10.25m0 0L584.5 753m-83.751-195.5 157.12 117.283L695 670M500.749 557.5l6.65-34M646 737.5l23.845-126m-162.446-88 162.446 88m-162.446-88 6.651-34m155.795 122 12.017-63.5M514.05 489.5 681.862 548M514.05 489.5l6.749-34.5m161.063 93 11.638-62.5M520.799 455 693.5 485.5M520.799 455l6.749-34.5m165.952 65 12.112-63m0 0-178.064-2m178.064 2 11.827-62.5m-189.891 60.5 6.65-34m0 0L717.439 360m-183.241 26.5 6.651-34m176.59 7.5 11.781-62.25m0 0L540.849 352.5M522.5 298.663l169-97.163m-169 97.163-24-19.163m0 0 144.5-110m-144.5 110L474 260.094m0 0L598 138M474 260.094l-23-18.218m0 0L554 108.5M451 241.876 428.432 224m0 0L512.5 80M406 206.223 472.5 52.5M406 206.223l-21.25-16.862m0 0L434.5 27M393 221.063l-24.5 12.165m0 0-24 11.916m0 0L321 256.813m0 0-23 11.42m0 0-22.5 11.172m0 0-22.25 11.047M225.827 327l-5.477 27m0 0-5.275 26m0 0-5.173 25.5m0 0-5.376 26.5m0 0-5.376 26.5m0 0-5.325 26.25m10.675 43.935 16.119 17.815m0 0 16.881 18.659m0 0 17 18.79m0 0 17.5 19.342m0 0 18.5 20.448m0 0 17.879 19.761" stroke="#4771D1"/></svg>