<svg width="818" height="120" viewBox="0 0 818 120" fill="none" xmlns="http://www.w3.org/2000/svg">
<path d="M788.701 31.376C787.044 31.376 785.701 32.7191 785.701 34.376V42.6302C785.701 44.2871 787.044 45.6302 788.701 45.6302H810.861C812.518 45.6302 813.861 46.9734 813.861 48.6302V69.9918C813.861 71.6487 812.518 72.9918 810.861 72.9918H788.701C787.044 72.9918 785.701 74.335 785.701 75.9918V86.376C785.701 88.0329 787.044 89.376 788.701 89.376H814.701C816.358 89.376 817.701 90.7192 817.701 92.376V115.376C817.701 117.033 816.358 118.376 814.701 118.376H760.285C758.628 118.376 757.285 117.033 757.285 115.376V5.376C757.285 3.71915 758.628 2.376 760.285 2.376H814.701C816.358 2.376 817.701 3.71915 817.701 5.376V28.376C817.701 30.0329 816.358 31.376 814.701 31.376H788.701Z" fill="#383632"/>
<path d="M662.19 60.48C662.19 49.0078 663.982 38.792 667.566 29.8328C671.235 20.8735 676.441 13.9356 683.182 9.01889C689.923 3.99296 697.859 1.48 706.99 1.48C714.841 1.48 721.838 3.39203 727.982 7.21611C734.211 10.9309 739.246 16.23 743.086 23.1133C746.518 29.1321 748.939 36.028 750.349 43.8011C750.674 45.5935 749.268 47.205 747.446 47.205H723.056C721.788 47.205 720.674 46.3994 720.155 45.2429C718.858 42.3568 717.157 40.0608 715.054 38.355C712.579 36.1698 709.721 35.0772 706.478 35.0772C701.699 35.0772 697.902 37.3717 695.086 41.9605C692.355 46.5494 690.99 52.7226 690.99 60.48C690.99 68.2374 692.355 74.4106 695.086 78.9994C697.902 83.5883 701.699 85.8828 706.478 85.8828C709.721 85.8828 712.579 84.8448 715.054 82.7689C717.159 80.9724 718.859 78.6221 720.157 75.7179C720.674 74.5602 721.788 73.755 723.056 73.755H747.446C749.268 73.755 750.674 75.3665 750.349 77.1589C748.939 84.932 746.518 91.8279 743.086 97.8467C739.246 104.73 734.211 110.084 727.982 113.908C721.838 117.623 714.841 119.48 706.99 119.48C697.859 119.48 689.923 117.022 683.182 112.105C676.441 107.079 671.235 100.086 667.566 91.1272C663.982 82.168 662.19 71.9522 662.19 60.48Z" fill="#383632"/>
<path d="M652.756 2.376C654.413 2.376 655.756 3.71915 655.756 5.376V115.376C655.756 117.033 654.413 118.376 652.756 118.376H630.34C628.683 118.376 627.34 117.033 627.34 115.376V5.376C627.34 3.71915 628.683 2.376 630.34 2.376H652.756Z" fill="#383632"/>
<path d="M622.167 42.1896C622.167 49.5078 620.844 56.1707 618.199 62.1783C615.554 68.0766 611.628 72.7734 606.423 76.2687C601.303 79.764 595.074 81.5116 587.735 81.5116H579.471C577.814 81.5116 576.471 82.8547 576.471 84.5116V115.376C576.471 117.033 575.128 118.376 573.471 118.376H551.055C549.398 118.376 548.055 117.033 548.055 115.376V5.376C548.055 3.71915 549.398 2.376 551.055 2.376H587.735C598.828 2.376 607.319 5.98052 613.207 13.1896C619.18 20.3986 622.167 30.0653 622.167 42.1896ZM584.535 52.8393C590.423 52.8393 593.367 49.2894 593.367 42.1896C593.367 35.0897 590.423 31.5398 584.535 31.5398H579.471C577.814 31.5398 576.471 32.883 576.471 34.5398V49.8393C576.471 51.4961 577.814 52.8393 579.471 52.8393H584.535Z" fill="#383632"/>
<path d="M515.561 87.8506C515.561 89.5074 516.904 90.8506 518.561 90.8506H539.953C541.61 90.8506 542.953 92.1937 542.953 93.8506V115.376C542.953 117.033 541.61 118.376 539.953 118.376H490.145C488.488 118.376 487.145 117.033 487.145 115.376V5.376C487.145 3.71915 488.488 2.376 490.145 2.376H512.561C514.218 2.376 515.561 3.71915 515.561 5.376V87.8506Z" fill="#383632"/>
<path d="M423.761 2.376C425.418 2.376 426.761 3.71915 426.761 5.376V67.6669C426.761 73.0124 427.657 77.2669 429.449 80.4305C431.326 83.4851 434.313 85.0124 438.409 85.0124C442.505 85.0124 445.534 83.4851 447.497 80.4305C449.46 77.2669 450.441 73.0124 450.441 67.6669V5.376C450.441 3.71915 451.784 2.376 453.441 2.376H475.729C477.386 2.376 478.729 3.71915 478.729 5.376V67.6669C478.729 78.6851 476.937 88.1215 473.353 95.976C469.769 103.721 464.862 109.558 458.633 113.485C452.404 117.412 445.449 119.376 437.769 119.376C430.089 119.376 423.262 117.412 417.289 113.485C411.401 109.558 406.793 103.721 403.465 95.976C400.137 88.2305 398.473 78.7942 398.473 67.6669V5.376C398.473 3.71915 399.816 2.376 401.473 2.376H423.761Z" fill="#383632"/>
<path d="M358.281 119.84C347.444 119.84 338.484 116.621 331.401 110.182C324.999 104.192 321.276 95.6906 320.231 84.6771C320.069 82.9719 321.442 81.5374 323.155 81.5374H347.403C348.985 81.5374 350.265 82.7741 350.54 84.3324C351.385 89.1256 353.581 91.5223 357.129 91.5223C358.665 91.5223 359.945 91.0858 360.969 90.2128C362.078 89.2306 362.633 87.7575 362.633 85.7932C362.633 83.0651 361.481 80.8826 359.177 79.2458C356.873 77.4998 353.289 75.5356 348.425 73.3531C342.622 70.7341 337.801 68.1697 333.961 65.6598C330.206 63.15 326.964 59.4943 324.233 54.6928C321.502 49.8913 320.18 43.7258 320.265 36.1963C320.265 28.6667 321.758 22.2829 324.745 17.0449C327.817 11.6979 331.956 7.66026 337.161 4.93215C342.452 2.20405 348.382 0.839996 354.953 0.839996C366.046 0.839996 374.836 4.11372 381.321 10.6612C387.312 16.6314 390.714 24.8244 391.526 35.2404C391.658 36.9258 390.292 38.3242 388.602 38.3242H364.02C362.393 38.3242 361.105 37.0188 360.836 35.4148C360.535 33.6176 359.982 32.2412 359.177 31.2857C357.982 29.867 356.532 29.1577 354.825 29.1577C353.63 29.1577 352.649 29.7034 351.881 30.7946C351.113 31.7767 350.729 33.1953 350.729 35.0504C350.729 37.6694 351.838 39.8519 354.057 41.5979C356.361 43.2348 359.988 45.2536 364.937 47.6543C370.654 50.3824 375.348 53.0014 379.017 55.5112C382.772 58.0211 386.014 61.5131 388.745 65.9872C391.476 70.4613 392.841 76.0812 392.841 82.8469C392.841 89.94 391.476 96.3237 388.745 101.998C386.014 107.564 382.046 111.929 376.841 115.093C371.636 118.258 365.449 119.84 358.281 119.84Z" fill="#383632"/>
<path d="M292.921 2.376C294.578 2.376 295.921 3.71915 295.921 5.376V115.376C295.921 117.033 294.578 118.376 292.921 118.376H270.505C268.848 118.376 267.505 117.033 267.505 115.376V5.376C267.505 3.71915 268.848 2.376 270.505 2.376H292.921Z" fill="#383632"/>
<path d="M255.523 2.376C257.18 2.376 258.523 3.71915 258.523 5.376V115.376C258.523 117.033 257.18 118.376 255.523 118.376H233.235C231.578 118.376 230.235 117.033 230.235 115.376V85.7688C230.235 82.2162 225.152 81.6118 224.319 85.0653L216.837 116.08C216.512 117.427 215.306 118.376 213.921 118.376H194.325C192.939 118.376 191.734 117.427 191.409 116.08L183.927 85.0653C183.094 81.6118 178.011 82.2162 178.011 85.7688V115.376C178.011 117.033 176.668 118.376 175.011 118.376H152.595C150.938 118.376 149.595 117.033 149.595 115.376V5.376C149.595 3.71915 150.938 2.376 152.595 2.376H182.15C183.489 2.376 184.665 3.26253 185.034 4.54904L201.458 61.8217C202.292 64.7294 206.417 64.7153 207.231 61.8021L223.222 4.5687C223.585 3.27241 224.766 2.376 226.112 2.376H255.523Z" fill="#383632"/>
<path d="M113.726 31.376C112.069 31.376 110.726 32.7191 110.726 34.376V42.6302C110.726 44.2871 112.069 45.6302 113.726 45.6302H135.886C137.543 45.6302 138.886 46.9734 138.886 48.6302V69.9918C138.886 71.6487 137.543 72.9918 135.886 72.9918H113.726C112.069 72.9918 110.726 74.335 110.726 75.9918V86.376C110.726 88.0329 112.069 89.376 113.726 89.376H139.726C141.383 89.376 142.726 90.7192 142.726 92.376V115.376C142.726 117.033 141.383 118.376 139.726 118.376H85.31C83.6531 118.376 82.31 117.033 82.31 115.376V5.376C82.31 3.71915 83.6531 2.376 85.31 2.376H139.726C141.383 2.376 142.726 3.71915 142.726 5.376V28.376C142.726 30.0329 141.383 31.376 139.726 31.376H113.726Z" fill="#383632"/>
<path d="M47.9821 118.376C46.7639 118.376 45.6667 117.639 45.2055 116.512L28.9635 76.8078C28.9517 76.779 28.9237 76.7602 28.8926 76.7602V76.7602C28.8503 76.7602 28.816 76.7945 28.816 76.8368V115.376C28.816 117.033 27.4729 118.376 25.816 118.376H3.40002C1.74317 118.376 0.400024 117.033 0.400024 115.376V5.376C0.400024 3.71915 1.74317 2.376 3.40002 2.376H42.64C49.9787 2.376 56.2507 4.06903 61.456 7.45509C66.6614 10.7319 70.544 15.2649 73.104 21.054C75.7494 26.7338 77.072 33.1783 77.072 40.3873C77.072 48.1425 75.3654 55.0238 71.952 61.0314C69.1302 66.1251 65.2349 70.0017 60.2659 72.6611C58.7799 73.4564 58.0514 75.2439 58.7353 76.7843L75.3278 114.159C76.2084 116.142 74.7563 118.376 72.5858 118.376H47.9821ZM28.816 49.5116C28.816 51.1684 30.1592 52.5116 31.816 52.5116H40.08C42.8107 52.5116 44.8587 51.747 46.224 50.2178C47.5894 48.5794 48.272 46.0671 48.272 42.6811C48.272 39.6227 47.5467 37.2197 46.096 35.472C44.7307 33.7244 42.7254 32.8506 40.08 32.8506H31.816C30.1592 32.8506 28.816 34.1937 28.816 35.8506V49.5116Z" fill="#383632"/>
</svg>
