<svg width="217" height="239" viewBox="0 0 217 239" fill="none" xmlns="http://www.w3.org/2000/svg">
<path d="M202.864 117.971C202.864 105.726 192.937 95.7993 180.693 95.7993C179.904 95.7993 179.128 95.8415 178.362 95.9226L208.815 6.10474H79.4L109.811 95.8441C109.362 95.8158 108.913 95.8012 108.463 95.8002C96.2182 95.8002 86.2912 105.726 86.2912 117.972C86.2912 127.869 92.7781 136.249 101.73 139.1C97.0023 147.291 91.0521 154.668 84.2968 161.042C75.1108 169.707 64.598 176.278 53.2277 180.327C39.6901 173.372 33.2977 157.906 39.0655 144.346C39.7171 142.814 40.3821 141.262 41.0177 139.717C50.8249 137.428 58.1339 128.636 58.1339 118.131C58.1339 105.885 48.2068 95.9588 35.9613 95.9588C23.7158 95.9588 13.7896 105.885 13.7896 118.131C13.7896 125.64 17.5251 132.273 23.2364 136.283C17.7488 148.778 9.68186 161.855 7.16845 177.01C4.15624 195.173 7.15832 214.453 22.8676 225.341C59.453 250.698 99.1663 209.622 141.039 199.296C156.214 195.554 172.871 196.157 186.241 188.414C196.281 182.599 202.901 172.961 204.779 162.142C206.635 151.454 203.93 140.812 197.708 132.183C201.046 128.2 202.872 123.168 202.864 117.971Z" fill="#99425B"/>
<path d="M199.444 161.216C197.813 170.609 192.012 178.814 183.528 183.728C175.619 188.309 166.141 189.676 156.106 191.123C150.731 191.897 145.172 192.7 139.742 194.039C125.384 197.579 111.477 204.487 98.0286 211.167C71.1136 224.536 47.8701 236.08 25.9532 220.89C9.89877 209.764 10.6398 189.177 12.5101 177.896C14.2437 167.444 18.9303 157.819 23.4618 148.51C24.2338 146.928 24.9995 145.343 25.7591 143.755C28.0433 144.668 30.4402 145.27 32.8849 145.543C28.2717 160.767 35.5266 177.322 50.7531 185.144L52.8378 186.215L55.044 185.429C67.0819 181.141 78.1745 174.263 88.0129 164.98C94.3724 158.98 99.8406 152.342 104.335 145.249C105.701 145.455 107.081 145.559 108.463 145.559C122.439 145.559 134.011 135.111 135.802 121.617C141.523 121.408 147.599 121.406 153.352 121.615C155.142 135.111 166.716 145.56 180.692 145.56C186.536 145.56 191.956 143.728 196.421 140.617C199.521 146.963 200.678 154.103 199.444 161.216ZM35.9621 101.374C45.2022 101.374 52.7188 108.891 52.7188 118.131C52.7188 121.45 51.7448 124.545 50.0729 127.151C47.2877 131.495 42.5529 134.473 37.1133 134.844C36.7327 134.87 36.3487 134.888 35.9621 134.888C33.9028 134.888 31.9304 134.513 30.1065 133.831C26.4333 132.449 23.3573 129.829 21.4092 126.423C19.9625 123.899 19.2025 121.04 19.2046 118.131C19.2046 108.891 26.7221 101.374 35.9621 101.374ZM91.7071 117.972C91.7071 109.577 97.913 102.606 105.976 101.401C106.788 101.279 107.619 101.215 108.464 101.215C113.836 101.215 118.619 103.76 121.686 107.703C122.454 108.686 123.11 109.752 123.642 110.881C124.684 113.099 125.223 115.521 125.22 117.972C125.22 119.311 125.058 120.614 124.76 121.863C123.127 128.699 117.298 133.925 110.154 134.644C109.599 134.7 109.035 134.729 108.464 134.729C105.241 134.731 102.086 133.799 99.3824 132.044C94.7691 129.055 91.7071 123.866 91.7071 117.972ZM161.645 98.0452C157.998 101.526 155.374 105.938 154.056 110.804C147.74 110.571 141.418 110.571 135.102 110.804C133.684 105.544 130.745 100.904 126.791 97.3793L144.131 62.3181L161.645 98.0452ZM86.9529 11.5215H201.261L174.262 91.1481C173.101 91.4263 171.959 91.7801 170.843 92.2073L144.173 37.8009L117.427 91.8824C116.261 91.4822 115.069 91.161 113.86 90.9211L86.9529 11.5215ZM197.449 117.973C197.449 119.652 197.198 121.274 196.736 122.806C195.641 126.413 193.366 129.547 190.277 131.706C187.469 133.677 184.122 134.732 180.692 134.729C172.955 134.729 166.428 129.457 164.509 122.317C164.128 120.9 163.935 119.44 163.935 117.973C163.935 115.682 164.398 113.498 165.233 111.508C165.664 110.489 166.195 109.516 166.818 108.603C169.834 104.152 174.922 101.216 180.692 101.216C181.221 101.216 181.743 101.243 182.26 101.292C190.767 102.085 197.449 109.261 197.449 117.973ZM208.279 117.973C208.279 104.504 198.575 93.2665 185.794 90.8662L216.368 0.689697H71.8471L102.469 91.0485C90.1313 93.794 80.877 104.819 80.877 117.972C80.877 127.848 86.0962 136.523 93.9184 141.398C90.1558 147.004 85.6945 152.279 80.5816 157.103C72.4725 164.752 63.4392 170.554 53.7004 174.371C43.8906 168.209 39.7441 156.588 44.0501 146.465L44.3877 145.672L45.0207 144.183C55.7951 140.425 63.5489 130.17 63.5489 118.131C63.5489 102.919 51.1734 90.5438 35.9621 90.5438C20.7508 90.5438 8.37367 102.919 8.37367 118.131C8.37367 125.809 11.5302 132.762 16.6094 137.769C15.6621 139.776 14.7004 141.776 13.7246 143.769C9.0801 153.307 3.81695 164.118 1.82597 176.124C-2.1273 199.967 4.24992 219.027 19.7836 229.792C29.2093 236.324 38.7819 238.893 48.4144 238.893C66.5518 238.893 84.9003 229.781 102.846 220.867C115.77 214.448 129.135 207.81 142.336 204.554C147.248 203.343 152.302 202.614 157.653 201.842C168.264 200.311 179.236 198.729 188.955 193.1C200.222 186.574 207.933 175.628 210.114 163.069C211.986 152.287 209.734 141.488 204.239 132.329C206.887 128.009 208.285 123.039 208.279 117.972V117.973Z" fill="white"/>
</svg>
